<mxfile host="app.diagrams.net" agent="Mozilla/5.0 (Windows NT 10.0; Win64; x64) AppleWebKit/537.36 (KHTML, like Gecko) Chrome/135.0.0.0 Safari/537.36" version="26.2.14">
  <diagram name="Página-1" id="wAooyPA9K4l1pR_OehJg">
    <mxGraphModel dx="2216" dy="1364" grid="0" gridSize="10" guides="1" tooltips="1" connect="1" arrows="1" fold="1" page="0" pageScale="1" pageWidth="1169" pageHeight="827" background="#ffffff" math="0" shadow="0" adaptiveColors="simple">
      <root>
        <mxCell id="0" />
        <mxCell id="1" parent="0" />
        <mxCell id="z9qo9dNRglIz87wQuDP6-1" value="" style="shape=folder;fontStyle=1;spacingTop=10;tabWidth=40;tabHeight=14;tabPosition=left;html=1;whiteSpace=wrap;labelBackgroundColor=none;" vertex="1" parent="1">
          <mxGeometry x="10" y="-30" width="1400" height="680" as="geometry" />
        </mxCell>
        <mxCell id="Udb0MyampByQuGeNIAsv-1" value="" style="shape=folder;fontStyle=1;spacingTop=10;tabWidth=40;tabHeight=14;tabPosition=left;html=1;whiteSpace=wrap;labelBackgroundColor=none;" parent="1" vertex="1">
          <mxGeometry x="20" y="20" width="310" height="310" as="geometry" />
        </mxCell>
        <mxCell id="Udb0MyampByQuGeNIAsv-4" value="" style="shape=folder;fontStyle=1;spacingTop=10;tabWidth=40;tabHeight=14;tabPosition=left;html=1;whiteSpace=wrap;labelBackgroundColor=none;" parent="1" vertex="1">
          <mxGeometry x="410" y="20" width="400" height="260" as="geometry" />
        </mxCell>
        <mxCell id="Udb0MyampByQuGeNIAsv-5" value="«UsuarioController»&lt;br&gt;&lt;b&gt;Component&lt;/b&gt;" style="html=1;dropTarget=0;whiteSpace=wrap;labelBackgroundColor=none;" parent="1" vertex="1">
          <mxGeometry x="625" y="71" width="160" height="80" as="geometry" />
        </mxCell>
        <mxCell id="Udb0MyampByQuGeNIAsv-6" value="" style="shape=module;jettyWidth=8;jettyHeight=4;labelBackgroundColor=none;" parent="Udb0MyampByQuGeNIAsv-5" vertex="1">
          <mxGeometry x="1" width="20" height="20" relative="1" as="geometry">
            <mxPoint x="-27" y="7" as="offset" />
          </mxGeometry>
        </mxCell>
        <mxCell id="Udb0MyampByQuGeNIAsv-7" value="" style="shape=folder;fontStyle=1;spacingTop=10;tabWidth=40;tabHeight=14;tabPosition=left;html=1;whiteSpace=wrap;labelBackgroundColor=none;" parent="1" vertex="1">
          <mxGeometry x="900" y="20" width="430" height="590" as="geometry" />
        </mxCell>
        <mxCell id="Udb0MyampByQuGeNIAsv-10" value="Model" style="text;align=center;fontStyle=1;verticalAlign=middle;spacingLeft=3;spacingRight=3;strokeColor=none;rotatable=0;points=[[0,0.5],[1,0.5]];portConstraint=eastwest;html=1;labelBackgroundColor=none;" parent="1" vertex="1">
          <mxGeometry x="130" y="39" width="80" height="26" as="geometry" />
        </mxCell>
        <mxCell id="Udb0MyampByQuGeNIAsv-11" value="Controller" style="text;align=center;fontStyle=1;verticalAlign=middle;spacingLeft=3;spacingRight=3;strokeColor=none;rotatable=0;points=[[0,0.5],[1,0.5]];portConstraint=eastwest;html=1;labelBackgroundColor=none;" parent="1" vertex="1">
          <mxGeometry x="570" y="39" width="80" height="26" as="geometry" />
        </mxCell>
        <mxCell id="Udb0MyampByQuGeNIAsv-14" value="View" style="text;align=center;fontStyle=1;verticalAlign=middle;spacingLeft=3;spacingRight=3;strokeColor=none;rotatable=0;points=[[0,0.5],[1,0.5]];portConstraint=eastwest;html=1;labelBackgroundColor=none;" parent="1" vertex="1">
          <mxGeometry x="1075" y="30" width="80" height="26" as="geometry" />
        </mxCell>
        <mxCell id="Udb0MyampByQuGeNIAsv-15" value="«Usuarios»&lt;br&gt;&lt;b&gt;Component&lt;/b&gt;" style="html=1;dropTarget=0;whiteSpace=wrap;labelBackgroundColor=none;" parent="1" vertex="1">
          <mxGeometry x="40" y="76" width="120" height="70" as="geometry" />
        </mxCell>
        <mxCell id="Udb0MyampByQuGeNIAsv-16" value="" style="shape=module;jettyWidth=8;jettyHeight=4;labelBackgroundColor=none;" parent="Udb0MyampByQuGeNIAsv-15" vertex="1">
          <mxGeometry x="1" width="20" height="20" relative="1" as="geometry">
            <mxPoint x="-27" y="7" as="offset" />
          </mxGeometry>
        </mxCell>
        <mxCell id="Udb0MyampByQuGeNIAsv-17" value="«Libros»&lt;br&gt;&lt;b&gt;Component&lt;/b&gt;" style="html=1;dropTarget=0;whiteSpace=wrap;labelBackgroundColor=none;" parent="1" vertex="1">
          <mxGeometry x="40" y="204.5" width="120" height="71" as="geometry" />
        </mxCell>
        <mxCell id="Udb0MyampByQuGeNIAsv-18" value="" style="shape=module;jettyWidth=8;jettyHeight=4;labelBackgroundColor=none;" parent="Udb0MyampByQuGeNIAsv-17" vertex="1">
          <mxGeometry x="1" width="20" height="20" relative="1" as="geometry">
            <mxPoint x="-27" y="7" as="offset" />
          </mxGeometry>
        </mxCell>
        <mxCell id="Udb0MyampByQuGeNIAsv-21" value="«Prestamos»&lt;br&gt;&lt;b&gt;Component&lt;/b&gt;" style="html=1;dropTarget=0;whiteSpace=wrap;labelBackgroundColor=none;" parent="1" vertex="1">
          <mxGeometry x="183.5" y="203" width="130.5" height="74" as="geometry" />
        </mxCell>
        <mxCell id="Udb0MyampByQuGeNIAsv-22" value="" style="shape=module;jettyWidth=8;jettyHeight=4;labelBackgroundColor=none;" parent="Udb0MyampByQuGeNIAsv-21" vertex="1">
          <mxGeometry x="1" width="20" height="20" relative="1" as="geometry">
            <mxPoint x="-27" y="7" as="offset" />
          </mxGeometry>
        </mxCell>
        <mxCell id="Udb0MyampByQuGeNIAsv-25" value="«LibroController&lt;span style=&quot;background-color: transparent; color: light-dark(rgb(0, 0, 0), rgb(255, 255, 255));&quot;&gt;»&lt;/span&gt;&lt;div&gt;&lt;b&gt;Component&lt;/b&gt;&lt;/div&gt;" style="html=1;dropTarget=0;whiteSpace=wrap;labelBackgroundColor=none;" parent="1" vertex="1">
          <mxGeometry x="625" y="167" width="160" height="78" as="geometry" />
        </mxCell>
        <mxCell id="Udb0MyampByQuGeNIAsv-26" value="" style="shape=module;jettyWidth=8;jettyHeight=4;labelBackgroundColor=none;" parent="Udb0MyampByQuGeNIAsv-25" vertex="1">
          <mxGeometry x="1" width="20" height="20" relative="1" as="geometry">
            <mxPoint x="-27" y="7" as="offset" />
          </mxGeometry>
        </mxCell>
        <mxCell id="Udb0MyampByQuGeNIAsv-29" value="" style="shape=folder;fontStyle=1;spacingTop=10;tabWidth=40;tabHeight=14;tabPosition=left;html=1;whiteSpace=wrap;labelBackgroundColor=none;" parent="1" vertex="1">
          <mxGeometry x="1480" y="5" width="290" height="340" as="geometry" />
        </mxCell>
        <mxCell id="Udb0MyampByQuGeNIAsv-30" value="«MySQL»&lt;br&gt;&lt;b&gt;Component&lt;/b&gt;" style="html=1;dropTarget=0;whiteSpace=wrap;labelBackgroundColor=none;" parent="1" vertex="1">
          <mxGeometry x="1555" y="104" width="170" height="125" as="geometry" />
        </mxCell>
        <mxCell id="Udb0MyampByQuGeNIAsv-31" value="" style="shape=module;jettyWidth=8;jettyHeight=4;labelBackgroundColor=none;" parent="Udb0MyampByQuGeNIAsv-30" vertex="1">
          <mxGeometry x="1" width="20" height="20" relative="1" as="geometry">
            <mxPoint x="-27" y="7" as="offset" />
          </mxGeometry>
        </mxCell>
        <mxCell id="Udb0MyampByQuGeNIAsv-32" value="Database" style="text;align=center;fontStyle=1;verticalAlign=middle;spacingLeft=3;spacingRight=3;strokeColor=none;rotatable=0;points=[[0,0.5],[1,0.5]];portConstraint=eastwest;html=1;labelBackgroundColor=none;" parent="1" vertex="1">
          <mxGeometry x="1585" y="34" width="80" height="26" as="geometry" />
        </mxCell>
        <mxCell id="Udb0MyampByQuGeNIAsv-33" value="" style="shape=folder;fontStyle=1;spacingTop=10;tabWidth=40;tabHeight=14;tabPosition=left;html=1;whiteSpace=wrap;labelBackgroundColor=none;" parent="1" vertex="1">
          <mxGeometry x="920" y="145" width="180" height="255" as="geometry" />
        </mxCell>
        <mxCell id="Udb0MyampByQuGeNIAsv-36" value="View User" style="text;align=center;fontStyle=1;verticalAlign=middle;spacingLeft=3;spacingRight=3;strokeColor=none;rotatable=0;points=[[0,0.5],[1,0.5]];portConstraint=eastwest;html=1;labelBackgroundColor=none;" parent="1" vertex="1">
          <mxGeometry x="970" y="170" width="80" height="26" as="geometry" />
        </mxCell>
        <mxCell id="IQc_5wnXwnNFPeWx3oop-1" value="«Bibliotecarios&lt;span style=&quot;background-color: transparent; color: light-dark(rgb(0, 0, 0), rgb(255, 255, 255));&quot;&gt;»&lt;/span&gt;&lt;div&gt;&lt;b&gt;Component&lt;/b&gt;&lt;/div&gt;" style="html=1;dropTarget=0;whiteSpace=wrap;labelBackgroundColor=none;" parent="1" vertex="1">
          <mxGeometry x="183.5" y="76" width="133" height="70" as="geometry" />
        </mxCell>
        <mxCell id="IQc_5wnXwnNFPeWx3oop-2" value="" style="shape=module;jettyWidth=8;jettyHeight=4;labelBackgroundColor=none;" parent="IQc_5wnXwnNFPeWx3oop-1" vertex="1">
          <mxGeometry x="1" width="20" height="20" relative="1" as="geometry">
            <mxPoint x="-27" y="7" as="offset" />
          </mxGeometry>
        </mxCell>
        <mxCell id="IQc_5wnXwnNFPeWx3oop-3" value="«PrestamosController»&lt;br&gt;&lt;b&gt;Component&lt;/b&gt;" style="html=1;dropTarget=0;whiteSpace=wrap;labelBackgroundColor=none;" parent="1" vertex="1">
          <mxGeometry x="445" y="165" width="160" height="80" as="geometry" />
        </mxCell>
        <mxCell id="IQc_5wnXwnNFPeWx3oop-4" value="" style="shape=module;jettyWidth=8;jettyHeight=4;labelBackgroundColor=none;" parent="IQc_5wnXwnNFPeWx3oop-3" vertex="1">
          <mxGeometry x="1" width="20" height="20" relative="1" as="geometry">
            <mxPoint x="-27" y="7" as="offset" />
          </mxGeometry>
        </mxCell>
        <mxCell id="IQc_5wnXwnNFPeWx3oop-5" value="«iniSesion»&lt;br&gt;&lt;b&gt;Component&lt;/b&gt;" style="html=1;dropTarget=0;whiteSpace=wrap;labelBackgroundColor=none;" parent="1" vertex="1">
          <mxGeometry x="445" y="71" width="160" height="80" as="geometry" />
        </mxCell>
        <mxCell id="IQc_5wnXwnNFPeWx3oop-6" value="" style="shape=module;jettyWidth=8;jettyHeight=4;labelBackgroundColor=none;" parent="IQc_5wnXwnNFPeWx3oop-5" vertex="1">
          <mxGeometry x="1" width="20" height="20" relative="1" as="geometry">
            <mxPoint x="-27" y="7" as="offset" />
          </mxGeometry>
        </mxCell>
        <mxCell id="IQc_5wnXwnNFPeWx3oop-7" value="«InicioUser.php»&lt;br&gt;&lt;b&gt;Component&lt;/b&gt;" style="html=1;dropTarget=0;whiteSpace=wrap;labelBackgroundColor=none;" parent="1" vertex="1">
          <mxGeometry x="1046.25" y="56" width="137.5" height="66" as="geometry" />
        </mxCell>
        <mxCell id="IQc_5wnXwnNFPeWx3oop-8" value="" style="shape=module;jettyWidth=8;jettyHeight=4;labelBackgroundColor=none;" parent="IQc_5wnXwnNFPeWx3oop-7" vertex="1">
          <mxGeometry x="1" width="20" height="20" relative="1" as="geometry">
            <mxPoint x="-27" y="7" as="offset" />
          </mxGeometry>
        </mxCell>
        <mxCell id="Udb0MyampByQuGeNIAsv-39" value="«login.php»&lt;br&gt;&lt;b&gt;Component&lt;/b&gt;" style="html=1;dropTarget=0;whiteSpace=wrap;labelBackgroundColor=none;" parent="1" vertex="1">
          <mxGeometry x="940" y="210" width="140" height="70" as="geometry" />
        </mxCell>
        <mxCell id="Udb0MyampByQuGeNIAsv-40" value="" style="shape=module;jettyWidth=8;jettyHeight=4;labelBackgroundColor=none;" parent="Udb0MyampByQuGeNIAsv-39" vertex="1">
          <mxGeometry x="1" width="20" height="20" relative="1" as="geometry">
            <mxPoint x="-27" y="7" as="offset" />
          </mxGeometry>
        </mxCell>
        <mxCell id="IQc_5wnXwnNFPeWx3oop-10" value="«registerUser.php»&lt;br&gt;&lt;b&gt;Component&lt;/b&gt;" style="html=1;dropTarget=0;whiteSpace=wrap;labelBackgroundColor=none;" parent="1" vertex="1">
          <mxGeometry x="940" y="300" width="140" height="70" as="geometry" />
        </mxCell>
        <mxCell id="IQc_5wnXwnNFPeWx3oop-11" value="" style="shape=module;jettyWidth=8;jettyHeight=4;labelBackgroundColor=none;" parent="IQc_5wnXwnNFPeWx3oop-10" vertex="1">
          <mxGeometry x="1" width="20" height="20" relative="1" as="geometry">
            <mxPoint x="-27" y="7" as="offset" />
          </mxGeometry>
        </mxCell>
        <mxCell id="IQc_5wnXwnNFPeWx3oop-13" value="" style="shape=folder;fontStyle=1;spacingTop=10;tabWidth=40;tabHeight=14;tabPosition=left;html=1;whiteSpace=wrap;labelBackgroundColor=none;" parent="1" vertex="1">
          <mxGeometry x="1130" y="145" width="180" height="425" as="geometry" />
        </mxCell>
        <mxCell id="Udb0MyampByQuGeNIAsv-37" value="View Librarian&amp;nbsp;" style="text;align=center;fontStyle=1;verticalAlign=middle;spacingLeft=3;spacingRight=3;strokeColor=none;rotatable=0;points=[[0,0.5],[1,0.5]];portConstraint=eastwest;html=1;labelBackgroundColor=none;" parent="1" vertex="1">
          <mxGeometry x="1180" y="170" width="80" height="26" as="geometry" />
        </mxCell>
        <mxCell id="IQc_5wnXwnNFPeWx3oop-14" value="«InicioBibliotec.php»&lt;br&gt;&lt;b&gt;Component&lt;/b&gt;" style="html=1;dropTarget=0;whiteSpace=wrap;labelBackgroundColor=none;" parent="1" vertex="1">
          <mxGeometry x="1150" y="205" width="140" height="70" as="geometry" />
        </mxCell>
        <mxCell id="IQc_5wnXwnNFPeWx3oop-15" value="" style="shape=module;jettyWidth=8;jettyHeight=4;labelBackgroundColor=none;" parent="IQc_5wnXwnNFPeWx3oop-14" vertex="1">
          <mxGeometry x="1" width="20" height="20" relative="1" as="geometry">
            <mxPoint x="-27" y="7" as="offset" />
          </mxGeometry>
        </mxCell>
        <mxCell id="IQc_5wnXwnNFPeWx3oop-16" value="«ListadoLibrosBibli.php»&lt;br&gt;&lt;b&gt;Component&lt;/b&gt;" style="html=1;dropTarget=0;whiteSpace=wrap;labelBackgroundColor=none;" parent="1" vertex="1">
          <mxGeometry x="1150" y="290" width="140" height="70" as="geometry" />
        </mxCell>
        <mxCell id="IQc_5wnXwnNFPeWx3oop-17" value="" style="shape=module;jettyWidth=8;jettyHeight=4;labelBackgroundColor=none;" parent="IQc_5wnXwnNFPeWx3oop-16" vertex="1">
          <mxGeometry x="1" width="20" height="20" relative="1" as="geometry">
            <mxPoint x="-27" y="7" as="offset" />
          </mxGeometry>
        </mxCell>
        <mxCell id="IQc_5wnXwnNFPeWx3oop-18" value="«ListadoPrestBibli.php»&lt;br&gt;&lt;b&gt;Component&lt;/b&gt;" style="html=1;dropTarget=0;whiteSpace=wrap;labelBackgroundColor=none;" parent="1" vertex="1">
          <mxGeometry x="1150" y="380" width="140" height="70" as="geometry" />
        </mxCell>
        <mxCell id="IQc_5wnXwnNFPeWx3oop-19" value="" style="shape=module;jettyWidth=8;jettyHeight=4;labelBackgroundColor=none;" parent="IQc_5wnXwnNFPeWx3oop-18" vertex="1">
          <mxGeometry x="1" width="20" height="20" relative="1" as="geometry">
            <mxPoint x="-27" y="7" as="offset" />
          </mxGeometry>
        </mxCell>
        <mxCell id="IQc_5wnXwnNFPeWx3oop-20" value="«SolicPrestBibli.php»&lt;br&gt;&lt;b&gt;Component&lt;/b&gt;" style="html=1;dropTarget=0;whiteSpace=wrap;labelBackgroundColor=none;" parent="1" vertex="1">
          <mxGeometry x="1150" y="470" width="140" height="70" as="geometry" />
        </mxCell>
        <mxCell id="IQc_5wnXwnNFPeWx3oop-21" value="" style="shape=module;jettyWidth=8;jettyHeight=4;labelBackgroundColor=none;" parent="IQc_5wnXwnNFPeWx3oop-20" vertex="1">
          <mxGeometry x="1" width="20" height="20" relative="1" as="geometry">
            <mxPoint x="-27" y="7" as="offset" />
          </mxGeometry>
        </mxCell>
        <mxCell id="z9qo9dNRglIz87wQuDP6-4" value="" style="rounded=1;whiteSpace=wrap;html=1;" vertex="1" parent="1">
          <mxGeometry x="314" y="158" width="35" height="34" as="geometry" />
        </mxCell>
        <mxCell id="z9qo9dNRglIz87wQuDP6-5" value="" style="rounded=1;whiteSpace=wrap;html=1;" vertex="1" parent="1">
          <mxGeometry x="800" y="146" width="35" height="34" as="geometry" />
        </mxCell>
        <mxCell id="z9qo9dNRglIz87wQuDP6-8" value="" style="rounded=1;whiteSpace=wrap;html=1;" vertex="1" parent="1">
          <mxGeometry x="1320" y="188" width="35" height="34" as="geometry" />
        </mxCell>
        <mxCell id="z9qo9dNRglIz87wQuDP6-12" value="" style="group;direction=east;flipV=0;flipH=1;" vertex="1" connectable="0" parent="1">
          <mxGeometry x="350" y="170" width="60" height="10" as="geometry" />
        </mxCell>
        <mxCell id="z9qo9dNRglIz87wQuDP6-9" value="" style="rounded=0;orthogonalLoop=1;jettySize=auto;html=1;endArrow=halfCircle;endFill=0;endSize=6;strokeWidth=1;sketch=0;verticalAlign=middle;" edge="1" target="z9qo9dNRglIz87wQuDP6-11" parent="z9qo9dNRglIz87wQuDP6-12">
          <mxGeometry relative="1" as="geometry">
            <mxPoint y="5.192307692307622" as="sourcePoint" />
          </mxGeometry>
        </mxCell>
        <mxCell id="z9qo9dNRglIz87wQuDP6-10" value="" style="rounded=0;orthogonalLoop=1;jettySize=auto;html=1;endArrow=oval;endFill=0;sketch=0;sourcePerimeterSpacing=0;targetPerimeterSpacing=0;endSize=10;verticalAlign=middle;" edge="1" target="z9qo9dNRglIz87wQuDP6-11" parent="z9qo9dNRglIz87wQuDP6-12">
          <mxGeometry relative="1" as="geometry">
            <mxPoint x="60" y="5.192307692307622" as="sourcePoint" />
          </mxGeometry>
        </mxCell>
        <mxCell id="z9qo9dNRglIz87wQuDP6-11" value="" style="ellipse;whiteSpace=wrap;html=1;align=center;aspect=fixed;fillColor=none;strokeColor=none;resizable=0;perimeter=centerPerimeter;rotatable=0;allowArrows=0;points=[];outlineConnect=1;verticalAlign=middle;flipV=1;" vertex="1" parent="z9qo9dNRglIz87wQuDP6-12">
          <mxGeometry x="22.5" width="10" height="10" as="geometry" />
        </mxCell>
        <mxCell id="z9qo9dNRglIz87wQuDP6-13" value="" style="group;direction=east;flipV=0;flipH=1;" vertex="1" connectable="0" parent="1">
          <mxGeometry x="840" y="160" width="60" height="10" as="geometry" />
        </mxCell>
        <mxCell id="z9qo9dNRglIz87wQuDP6-15" value="" style="rounded=0;orthogonalLoop=1;jettySize=auto;html=1;endArrow=oval;endFill=0;sketch=0;sourcePerimeterSpacing=0;targetPerimeterSpacing=0;endSize=10;verticalAlign=middle;" edge="1" parent="z9qo9dNRglIz87wQuDP6-13" target="z9qo9dNRglIz87wQuDP6-16">
          <mxGeometry relative="1" as="geometry">
            <mxPoint x="60" y="5.192307692307622" as="sourcePoint" />
          </mxGeometry>
        </mxCell>
        <mxCell id="z9qo9dNRglIz87wQuDP6-16" value="" style="ellipse;whiteSpace=wrap;html=1;align=center;aspect=fixed;fillColor=none;strokeColor=none;resizable=0;perimeter=centerPerimeter;rotatable=0;allowArrows=0;points=[];outlineConnect=1;verticalAlign=middle;flipV=1;" vertex="1" parent="z9qo9dNRglIz87wQuDP6-13">
          <mxGeometry x="22.5" width="10" height="10" as="geometry" />
        </mxCell>
        <mxCell id="z9qo9dNRglIz87wQuDP6-14" value="" style="rounded=0;orthogonalLoop=1;jettySize=auto;html=1;endArrow=halfCircle;endFill=0;endSize=6;strokeWidth=1;sketch=0;verticalAlign=middle;exitX=0.963;exitY=0.572;exitDx=0;exitDy=0;exitPerimeter=0;" edge="1" parent="1" target="z9qo9dNRglIz87wQuDP6-16" source="z9qo9dNRglIz87wQuDP6-5">
          <mxGeometry relative="1" as="geometry">
            <mxPoint x="840" y="165.19230769230762" as="sourcePoint" />
          </mxGeometry>
        </mxCell>
        <mxCell id="z9qo9dNRglIz87wQuDP6-17" value="" style="group;direction=east;flipV=0;flipH=1;" vertex="1" connectable="0" parent="1">
          <mxGeometry x="1350" y="200" width="130" height="10" as="geometry" />
        </mxCell>
        <mxCell id="z9qo9dNRglIz87wQuDP6-19" value="" style="rounded=0;orthogonalLoop=1;jettySize=auto;html=1;endArrow=oval;endFill=0;sketch=0;sourcePerimeterSpacing=0;targetPerimeterSpacing=0;endSize=10;verticalAlign=middle;" edge="1" parent="z9qo9dNRglIz87wQuDP6-17" target="z9qo9dNRglIz87wQuDP6-20">
          <mxGeometry relative="1" as="geometry">
            <mxPoint x="130" y="5.192307692307622" as="sourcePoint" />
          </mxGeometry>
        </mxCell>
        <mxCell id="z9qo9dNRglIz87wQuDP6-20" value="" style="ellipse;whiteSpace=wrap;html=1;align=center;aspect=fixed;fillColor=none;strokeColor=none;resizable=0;perimeter=centerPerimeter;rotatable=0;allowArrows=0;points=[];outlineConnect=1;verticalAlign=middle;flipV=1;" vertex="1" parent="z9qo9dNRglIz87wQuDP6-17">
          <mxGeometry x="48.75" width="10" height="10" as="geometry" />
        </mxCell>
        <mxCell id="z9qo9dNRglIz87wQuDP6-18" value="" style="rounded=0;orthogonalLoop=1;jettySize=auto;html=1;endArrow=halfCircle;endFill=0;endSize=6;strokeWidth=1;sketch=0;verticalAlign=middle;exitX=1.009;exitY=0.498;exitDx=0;exitDy=0;exitPerimeter=0;entryX=1.164;entryY=0.556;entryDx=0;entryDy=0;entryPerimeter=0;" edge="1" parent="1" target="z9qo9dNRglIz87wQuDP6-20" source="z9qo9dNRglIz87wQuDP6-8">
          <mxGeometry relative="1" as="geometry">
            <mxPoint x="1360" y="205" as="sourcePoint" />
          </mxGeometry>
        </mxCell>
        <mxCell id="z9qo9dNRglIz87wQuDP6-22" value="app" style="text;align=center;fontStyle=1;verticalAlign=middle;spacingLeft=3;spacingRight=3;strokeColor=none;rotatable=0;points=[[0,0.5],[1,0.5]];portConstraint=eastwest;html=1;labelBackgroundColor=none;" vertex="1" parent="1">
          <mxGeometry x="573" y="-10" width="80" height="26" as="geometry" />
        </mxCell>
      </root>
    </mxGraphModel>
  </diagram>
</mxfile>
